<svg xmlns="http://www.w3.org/2000/svg" width="193.328" height="184.398" viewBox="0 0 193.328 184.398"><defs><style>.a{fill:#929292;}</style></defs><title>elevator-star</title><path class="a" d="M150.635,184.4c-1.509-.633-4.182-1.538-6.656-2.825-14.621-7.61-29.238-15.232-43.748-23.049-2.7-1.457-4.686-1.3-7.311.113-14.52,7.8-29.147,15.4-43.74,23.065-1.179.619-2.363,1.657-3.574,1.7-2.848.106-6.56.751-8.347-.727a10.358,10.358,0,0,1-3-8.2c2.63-17.274,5.723-34.48,8.9-51.665.585-3.161.047-5.22-2.293-7.46C28.6,103.6,16.5,91.664,4.313,79.817,1.459,77.042-1.052,74.136.449,69.787,1.927,65.5,5.576,64.65,9.566,64.092c16.49-2.306,32.946-4.859,49.447-7.078,3.726-.5,5.771-2.083,7.384-5.459,7.1-14.87,14.519-29.59,21.743-44.4C89.963,3.416,91.9-.045,96.732,0s6.7,3.645,8.508,7.329c7.26,14.795,14.693,29.508,21.754,44.4,1.659,3.5,3.889,4.81,7.495,5.3,16.661,2.281,33.285,4.835,49.945,7.128,3.95.544,7.154,1.833,8.49,5.808,1.3,3.877-.745,6.736-3.36,9.287-12.284,11.985-24.508,24.032-36.916,35.888-2.482,2.371-3.025,4.527-2.4,7.879,3.195,17.181,6.1,34.416,9.042,51.643C160.2,179.991,156.821,184.315,150.635,184.4ZM24.254,77.442c1.724,1.873,2.75,3.095,3.887,4.205,9.052,8.846,18.076,17.723,27.22,26.473,2.985,2.856,4.667,6.014,3.963,10.2-.774,4.593-1.568,9.183-2.348,13.775-1.688,9.936-3.372,19.872-5.238,30.868,9.3-4.858,17.62-9.3,26.021-13.572,22.568-11.486,14.862-11.778,37.812,0,8.386,4.3,16.716,8.717,25.711,13.414-.171-1.788-.2-2.729-.357-3.65-2.185-13.133-4.214-26.295-6.669-39.376-.945-5.037.519-8.629,4.078-12.018,9.045-8.612,17.929-17.395,26.859-26.128,1.128-1.1,2.145-2.322,3.636-3.949-1.489-.344-2.235-.573-3-.685-13.337-1.962-26.664-3.994-40.02-5.814-4.555-.621-7.673-2.738-9.623-6.881-2.836-6.023-5.784-11.994-8.743-17.959-3.419-6.893-6.9-13.755-10.7-21.319-1.183,2.069-1.889,3.167-2.463,4.331-5.665,11.5-11.4,22.958-16.91,34.526-2.063,4.327-5.133,6.794-9.892,7.279-2.315.236-4.607.686-6.912,1.021C48.779,73.891,36.992,75.6,24.254,77.442Z"/></svg>